# xmcd CD database file
#
# Track frame offsets:
#	150
#	20987
#	42586
#	69692
#	85146
#	106213
#	122941
#	139531
#	153853
#	186306
#
# Disc length: 2882 seconds
#
# Revision: 0
# Processed by: cddbd v1.5.1PL0 Copyright (c) Steve Scherf et al.
# Submitted via: CDex 1.51
#
DISCID=8c0b400a
DTITLE=Trias - Trias
DYEAR=2000
DGENRE=Jazz
TTITLE0=Blue Bach
TTITLE1=Chewing Gum
TTITLE2=Voilà
TTITLE3=Le Serpent
TTITLE4=Sans Soucis
TTITLE5=Tomatoes
TTITLE6=Mineures
TTITLE7=Jade
TTITLE8=Butch and Butch
TTITLE9=Sunday
EXTD=YEAR: 2000
EXTT0=
EXTT1=
EXTT2=
EXTT3=
EXTT4=
EXTT5=
EXTT6=
EXTT7=
EXTT8=
EXTT9=
PLAYORDER=
